<svg width="52" height="102" viewBox="0 0 52 102" fill="none" xmlns="http://www.w3.org/2000/svg">
<path opacity="0.2" d="M33.2757 0.415463C32.9528 -0.0326185 32.3278 -0.134127 31.8797 0.188738C31.4317 0.511603 31.3302 1.13658 31.653 1.58466L32.4643 1.00006L33.2757 0.415463ZM45.9552 21.7338L45.0584 22.1763L45.9552 21.7338ZM50.559 37.3523L49.5671 37.4789L50.559 37.3523ZM49.6058 52.4822L48.6347 52.2435L49.6058 52.4822ZM46.0955 58.9757L45.2938 58.378L46.0955 58.9757ZM39.3683 65.7939L38.7651 64.9963L39.3683 65.7939ZM30.4449 70.4627L30.7528 71.4141L30.4449 70.4627ZM21.2718 71.7241L21.2869 70.7242L21.2718 71.7241ZM4.668 66.7679L5.23435 65.9437L4.668 66.7679ZM1.30896 61.9027L0.354126 62.1998L1.30896 61.9027ZM1.41285 56.4919L0.481667 56.1274L1.41285 56.4919ZM5.22207 52.3166L5.73583 53.1745L5.22207 52.3166ZM13.2761 50.7841L13.1977 51.7811L13.2761 50.7841ZM23.8876 53.7249L23.4166 54.607L23.8876 53.7249ZM32.7355 62.0435L31.9061 62.6022L32.7355 62.0435ZM37.3106 74.2582L36.3245 74.4244L37.3106 74.2582ZM37.9941 87.0861L38.993 87.1328L37.9941 87.0861ZM36.7857 95.9855L37.7556 96.2288L36.7857 95.9855ZM34.0865 101.369C34.2902 101.882 34.8715 102.133 35.3848 101.93L43.7502 98.6099C44.2636 98.4062 44.5146 97.8249 44.3109 97.3116C44.1072 96.7982 43.5259 96.5472 43.0125 96.7509L35.5766 99.7017L32.6258 92.2658C32.4221 91.7525 31.8408 91.5015 31.3275 91.7052C30.8141 91.9089 30.5631 92.4902 30.7668 93.0035L34.0865 101.369ZM32.8585 3.25867C33.1811 3.70701 33.8059 3.80903 34.2543 3.48652C34.7026 3.16402 34.8046 2.53912 34.4821 2.09078L33.6703 2.67473L32.8585 3.25867ZM36.887 5.45328C36.5675 5.00283 35.9433 4.89672 35.4928 5.21628C35.0424 5.53583 34.9363 6.16004 35.2558 6.61049L36.0714 6.03189L36.887 5.45328ZM37.6149 9.98037C37.9282 10.4352 38.5509 10.5499 39.0057 10.2366C39.4606 9.92332 39.5753 9.30063 39.262 8.84581L38.4385 9.41309L37.6149 9.98037ZM41.58 12.2878C41.2771 11.826 40.6572 11.6972 40.1954 12.0001C39.7336 12.303 39.6048 12.9229 39.9077 13.3847L40.7439 12.8363L41.58 12.2878ZM42.097 16.8426C42.3838 17.3146 42.9989 17.4647 43.4709 17.178C43.9429 16.8912 44.093 16.2761 43.8063 15.8041L42.9516 16.3233L42.097 16.8426ZM45.8887 19.4265C45.6268 18.9402 45.0204 18.7583 44.5341 19.0201C44.0478 19.2819 43.8659 19.8884 44.1278 20.3747L45.0082 19.9006L45.8887 19.4265ZM45.908 23.9917C46.1316 24.4967 46.7222 24.7249 47.2272 24.5013C47.7322 24.2777 47.9603 23.687 47.7367 23.182L46.8223 23.5869L45.908 23.9917ZM49.2612 27.0697C49.0823 26.5472 48.5137 26.2686 47.9912 26.4475C47.4687 26.6264 47.1901 27.195 47.369 27.7175L48.3151 27.3936L49.2612 27.0697ZM48.4944 31.557C48.626 32.0934 49.1675 32.4215 49.7039 32.2899C50.2403 32.1583 50.5684 31.6168 50.4368 31.0804L49.4656 31.3187L48.4944 31.557ZM51.2581 35.1708C51.1711 34.6254 50.6584 34.2538 50.1131 34.3407C49.5677 34.4277 49.196 34.9404 49.283 35.4858L50.2705 35.3283L51.2581 35.1708ZM49.764 39.3333C49.8103 39.8836 50.294 40.2922 50.8443 40.2459C51.3946 40.1996 51.8032 39.7159 51.7569 39.1656L50.7605 39.2494L49.764 39.3333ZM51.8996 43.0716C51.9068 42.5194 51.4649 42.0659 50.9127 42.0587C50.3604 42.0515 49.9069 42.4934 49.8998 43.0456L50.8997 43.0586L51.8996 43.0716ZM49.6596 46.7462C49.5955 47.2947 49.9882 47.7914 50.5367 47.8555C51.0853 47.9197 51.582 47.527 51.6461 46.9784L50.6529 46.8623L49.6596 46.7462ZM51.0097 50.8294C51.1233 50.2889 50.7773 49.7587 50.2369 49.645C49.6964 49.5314 49.1661 49.8774 49.0525 50.4179L50.0311 50.6236L51.0097 50.8294ZM48.0928 53.8473C47.8756 54.3551 48.1112 54.9428 48.619 55.16C49.1267 55.3772 49.7145 55.1417 49.9317 54.6339L49.0122 54.2406L48.0928 53.8473ZM48.0046 58.0307C48.3163 57.5748 48.1995 56.9525 47.7436 56.6408C47.2877 56.329 46.6654 56.4459 46.3537 56.9018L47.1791 57.4662L48.0046 58.0307ZM43.8354 60.199C43.4757 60.618 43.5238 61.2494 43.9429 61.6091C44.362 61.9688 44.9933 61.9206 45.353 61.5015L44.5942 60.8502L43.8354 60.199ZM41.8888 65.0218C42.3027 64.6562 42.3419 64.0242 41.9763 63.6103C41.6107 63.1963 40.9787 63.1572 40.5648 63.5228L41.2268 64.2723L41.8888 65.0218ZM36.7546 66.3873C36.2878 66.6824 36.1486 67.3001 36.4438 67.7669C36.7389 68.2337 37.3566 68.3729 37.8234 68.0778L37.289 67.2325L36.7546 66.3873ZM33.2034 70.4985C33.7119 70.283 33.9495 69.6961 33.734 69.1876C33.5186 68.6791 32.9317 68.4415 32.4231 68.657L32.8133 69.5777L33.2034 70.4985ZM27.9828 70.1025C27.444 70.224 27.1057 70.7592 27.2271 71.2979C27.3486 71.8367 27.8838 72.175 28.4226 72.0536L28.2027 71.078L27.9828 70.1025ZM23.6459 72.6874C24.1975 72.6605 24.6229 72.1915 24.5959 71.6399C24.569 71.0883 24.1 70.6629 23.5484 70.6898L23.5971 71.6886L23.6459 72.6874ZM19.1582 70.6227C18.6077 70.5784 18.1255 70.9887 18.0811 71.5392C18.0368 72.0897 18.4472 72.5719 18.9977 72.6163L19.0779 71.6195L19.1582 70.6227ZM14.5244 71.9559C15.0641 72.0729 15.5965 71.7302 15.7135 71.1905C15.8306 70.6508 15.4879 70.1183 14.9481 70.0013L14.7362 70.9786L14.5244 71.9559ZM10.8678 68.8161C10.3497 68.6249 9.77465 68.8898 9.58338 69.4079C9.39211 69.926 9.65706 70.5011 10.1752 70.6924L10.5215 69.7542L10.8678 68.8161ZM6.04427 68.7974C6.52612 69.0673 7.13552 68.8954 7.40541 68.4136C7.6753 67.9317 7.50347 67.3223 7.02162 67.0525L6.53295 67.9249L6.04427 68.7974ZM4.22493 65.1002C3.83726 64.7069 3.20411 64.7023 2.81075 65.0899C2.41739 65.4776 2.41278 66.1107 2.80045 66.5041L3.51269 65.8022L4.22493 65.1002ZM0.926806 63.7247C1.15393 64.2281 1.74616 64.4521 2.24958 64.225C2.753 63.9978 2.97698 63.4056 2.74985 62.9022L1.83833 63.3134L0.926806 63.7247ZM1.98892 60.4113C1.90657 59.8651 1.39711 59.4892 0.850998 59.5715C0.304886 59.6539 -0.0710722 60.1633 0.0112717 60.7094L1.00009 60.5603L1.98892 60.4113ZM0.0526987 57.6327C-0.048519 58.1756 0.30956 58.6978 0.85249 58.799C1.39542 58.9002 1.91761 58.5421 2.01882 57.9992L1.03576 57.8159L0.0526987 57.6327ZM2.90987 55.7619C3.21159 55.2993 3.08118 54.6797 2.61859 54.378C2.15601 54.0763 1.53642 54.2067 1.2347 54.6693L2.07229 55.2156L2.90987 55.7619ZM3.41925 52.3377C2.98341 52.6769 2.90509 53.3052 3.2443 53.741C3.58352 54.1769 4.21182 54.2552 4.64765 53.916L4.03345 53.1268L3.41925 52.3377ZM7.44089 52.3562C7.96001 52.1677 8.22804 51.5941 8.03954 51.075C7.85105 50.5558 7.27741 50.2878 6.75829 50.4763L7.09959 51.4163L7.44089 52.3562ZM11.1718 49.7176C10.6196 49.7289 10.1811 50.1856 10.1923 50.7378C10.2036 51.2899 10.6603 51.7285 11.2124 51.7172L11.1921 50.7174L11.1718 49.7176ZM15.8871 52.0764C16.4333 52.1582 16.9424 51.7816 17.0241 51.2354C17.1058 50.6892 16.7292 50.1802 16.183 50.0984L16.0351 51.0874L15.8871 52.0764ZM21.7589 51.611C21.2479 51.4015 20.6638 51.6459 20.4543 52.1569C20.2448 52.6679 20.4892 53.252 21.0002 53.4615L21.3795 52.5362L21.7589 51.611ZM24.7133 55.3375C25.1873 55.621 25.8013 55.4665 26.0848 54.9925C26.3682 54.5185 26.2138 53.9045 25.7398 53.621L25.2265 54.4793L24.7133 55.3375ZM28.3809 55.462C27.954 55.1116 27.3239 55.1735 26.9735 55.6004C26.623 56.0273 26.685 56.6574 27.1118 57.0078L27.7464 56.2349L28.3809 55.462ZM29.2032 59.0346C29.5696 59.4478 30.2016 59.4858 30.6149 59.1193C31.0281 58.7529 31.0661 58.1209 30.6996 57.7077L29.9514 58.3711L29.2032 59.0346ZM32.6695 60.1965C32.347 59.7481 31.7222 59.6461 31.2738 59.9686C30.8255 60.2911 30.7235 60.916 31.046 61.3644L31.8578 60.7804L32.6695 60.1965ZM32.7236 63.932C32.9949 64.4131 33.6048 64.5832 34.0859 64.3119C34.5669 64.0407 34.737 63.4308 34.4658 62.9497L33.5947 63.4408L32.7236 63.932ZM35.9503 66.0058C35.7366 65.4965 35.1506 65.2568 34.6413 65.4705C34.132 65.6841 33.8923 66.2701 34.106 66.7794L35.0281 66.3926L35.9503 66.0058ZM35.1994 69.7756C35.365 70.3024 35.9264 70.5952 36.4533 70.4296C36.9801 70.2639 37.2729 69.7026 37.1073 69.1757L36.1533 69.4756L35.1994 69.7756ZM37.9751 72.4333C37.8571 71.8938 37.324 71.5521 36.7845 71.6701C36.245 71.7881 35.9033 72.3211 36.0213 72.8607L36.9982 72.647L37.9751 72.4333ZM36.5602 75.9822C36.6339 76.5295 37.1373 76.9135 37.6847 76.8398C38.232 76.7661 38.616 76.2626 38.5423 75.7152L37.5512 75.8487L36.5602 75.9822ZM38.8825 78.9726C38.8407 78.4219 38.3604 78.0094 37.8097 78.0513C37.259 78.0931 36.8465 78.5735 36.8883 79.1242L37.8854 79.0484L38.8825 78.9726ZM37.0465 82.2866C37.0603 82.8387 37.5191 83.2751 38.0712 83.2613C38.6233 83.2475 39.0597 82.7887 39.0459 82.2366L38.0462 82.2616L37.0465 82.2866ZM39.0495 85.5015C39.062 84.9493 38.6245 84.4916 38.0724 84.4791C37.5202 84.4666 37.0625 84.9041 37.05 85.4562L38.0497 85.4788L39.0495 85.5015ZM36.8508 89.2459C36.804 89.7962 37.2122 90.2803 37.7625 90.3271C38.3128 90.3739 38.7968 89.9657 38.8436 89.4155L37.8472 89.3307L36.8508 89.2459ZM38.2444 93.9694C38.3445 93.4262 37.9853 92.9048 37.4421 92.8047C36.899 92.7046 36.3776 93.0638 36.2775 93.6069L37.2609 93.7881L38.2444 93.9694ZM35.4749 96.9806C35.3156 97.5094 35.6151 98.0673 36.1439 98.2266C36.6727 98.386 37.2305 98.0865 37.3899 97.5577L36.4324 97.2691L35.4749 96.9806ZM36.4613 100.154C36.671 99.6435 36.4268 99.0593 35.9159 98.8496C35.4049 98.6399 34.8208 98.8841 34.611 99.395L35.5362 99.7747L36.4613 100.154ZM32.4643 1.00006L31.653 1.58466C32.0554 2.14306 32.4575 2.70108 32.8585 3.25867L33.6703 2.67473L34.4821 2.09078C34.0805 1.53243 33.6779 0.973756 33.2757 0.415463L32.4643 1.00006ZM36.0714 6.03189L35.2558 6.61049C36.0576 7.74071 36.8466 8.86494 37.6149 9.98037L38.4385 9.41309L39.262 8.84581C38.4871 7.72086 37.6926 6.58881 36.887 5.45328L36.0714 6.03189ZM40.7439 12.8363L39.9077 13.3847C40.6743 14.5534 41.4072 15.7072 42.097 16.8426L42.9516 16.3233L43.8063 15.8041C43.1024 14.6457 42.3569 13.4721 41.58 12.2878L40.7439 12.8363ZM45.0082 19.9006L44.1278 20.3747C44.4553 20.983 44.7661 21.5837 45.0584 22.1763L45.9552 21.7338L46.852 21.2914C46.5482 20.6757 46.2265 20.0538 45.8887 19.4265L45.0082 19.9006ZM45.9552 21.7338L45.0584 22.1763C45.3619 22.7915 45.6445 23.3968 45.908 23.9917L46.8223 23.5869L47.7367 23.182C47.4622 22.562 47.1678 21.9316 46.852 21.2914L45.9552 21.7338ZM48.3151 27.3936L47.369 27.7175C47.8306 29.0658 48.1977 30.3477 48.4944 31.557L49.4656 31.3187L50.4368 31.0804C50.127 29.8176 49.7434 28.4784 49.2612 27.0697L48.3151 27.3936ZM50.2705 35.3283L49.283 35.4858C49.3947 36.1859 49.4869 36.8507 49.5671 37.4789L50.559 37.3523L51.551 37.2257C51.4689 36.5822 51.3738 35.8962 51.2581 35.1708L50.2705 35.3283ZM50.559 37.3523L49.5671 37.4789C49.6481 38.1139 49.7133 38.7315 49.764 39.3333L50.7605 39.2494L51.7569 39.1656C51.7039 38.5347 51.6356 37.8886 51.551 37.2257L50.559 37.3523ZM50.8997 43.0586L49.8998 43.0456C49.883 44.3384 49.7978 45.5645 49.6596 46.7462L50.6529 46.8623L51.6461 46.9784C51.7918 45.7316 51.8819 44.4366 51.8996 43.0716L50.8997 43.0586ZM50.0311 50.6236L49.0525 50.4179C48.9237 51.0304 48.7836 51.6376 48.6347 52.2435L49.6058 52.4822L50.5769 52.7209C50.7304 52.0965 50.8756 51.4671 51.0097 50.8294L50.0311 50.6236ZM49.6058 52.4822L48.6347 52.2435C48.5017 52.7847 48.3202 53.3158 48.0928 53.8473L49.0122 54.2406L49.9317 54.6339C50.1974 54.0126 50.4154 53.3781 50.5769 52.7209L49.6058 52.4822ZM47.1791 57.4662L46.3537 56.9018C46.0269 57.3797 45.673 57.8693 45.2938 58.378L46.0955 58.9757L46.8972 59.5734C47.2872 59.0504 47.6579 58.5376 48.0046 58.0307L47.1791 57.4662ZM46.0955 58.9757L45.2938 58.378C44.8486 58.9751 44.3616 59.5859 43.8354 60.199L44.5942 60.8502L45.353 61.5015C45.9094 60.8533 46.425 60.2068 46.8972 59.5734L46.0955 58.9757ZM41.2268 64.2723L40.5648 63.5228C39.9896 64.0308 39.3891 64.5244 38.7651 64.9963L39.3683 65.7939L39.9715 66.5915C40.6381 66.0873 41.2778 65.5615 41.8888 65.0218L41.2268 64.2723ZM39.3683 65.7939L38.7651 64.9963C38.1159 65.4873 37.4435 65.9518 36.7546 66.3873L37.289 67.2325L37.8234 68.0778C38.5581 67.6132 39.2765 67.1171 39.9715 66.5915L39.3683 65.7939ZM32.8133 69.5777L32.4231 68.657C31.6602 68.9803 30.8955 69.2658 30.137 69.5113L30.4449 70.4627L30.7528 71.4141C31.5688 71.1501 32.3882 70.8439 33.2034 70.4985L32.8133 69.5777ZM30.4449 70.4627L30.137 69.5113C29.4106 69.7464 28.6951 69.942 27.9828 70.1025L28.2027 71.078L28.4226 72.0536C29.1949 71.8795 29.9691 71.6678 30.7528 71.4141L30.4449 70.4627ZM23.5971 71.6886L23.5484 70.6898C22.8129 70.7257 22.0618 70.7359 21.2869 70.7242L21.2718 71.7241L21.2567 72.724C22.0685 72.7362 22.8626 72.7257 23.6459 72.6874L23.5971 71.6886ZM21.2718 71.7241L21.2869 70.7242C20.5664 70.7133 19.8564 70.6789 19.1582 70.6227L19.0779 71.6195L18.9977 72.6163C19.7389 72.6759 20.4924 72.7124 21.2567 72.724L21.2718 71.7241ZM14.7362 70.9786L14.9481 70.0013C13.5107 69.6897 12.1458 69.2879 10.8678 68.8161L10.5215 69.7542L10.1752 70.6924C11.5408 71.1965 12.9955 71.6245 14.5244 71.9559L14.7362 70.9786ZM6.53295 67.9249L7.02162 67.0525C6.38827 66.6977 5.7916 66.3267 5.23435 65.9437L4.668 66.7679L4.10165 67.5921C4.71097 68.0108 5.35961 68.4139 6.04427 68.7974L6.53295 67.9249ZM4.668 66.7679L5.23435 65.9437C4.85329 65.6819 4.51945 65.3991 4.22493 65.1002L3.51269 65.8022L2.80045 66.5041C3.18347 66.8928 3.61488 67.2576 4.10165 67.5921L4.668 66.7679ZM1.83833 63.3134L2.74985 62.9022C2.56064 62.4828 2.40176 62.0489 2.2638 61.6055L1.30896 61.9027L0.354126 62.1998C0.511255 62.7047 0.697789 63.2171 0.926806 63.7247L1.83833 63.3134ZM1.30896 61.9027L2.2638 61.6055C2.1414 61.2122 2.0494 60.8124 1.98892 60.4113L1.00009 60.5603L0.0112717 60.7094C0.0870873 61.2123 0.202029 61.711 0.354126 62.1998L1.30896 61.9027ZM1.03576 57.8159L2.01882 57.9992C2.09212 57.6061 2.20032 57.2236 2.34403 56.8565L1.41285 56.4919L0.481667 56.1274C0.290219 56.6164 0.148155 57.1206 0.0526987 57.6327L1.03576 57.8159ZM1.41285 56.4919L2.34403 56.8565C2.49294 56.4761 2.68192 56.1114 2.90987 55.7619L2.07229 55.2156L1.2347 54.6693C0.93473 55.1292 0.682117 55.6154 0.481667 56.1274L1.41285 56.4919ZM4.03345 53.1268L4.64765 53.916C4.98097 53.6566 5.34398 53.4092 5.73583 53.1745L5.22207 52.3166L4.7083 51.4587C4.25227 51.7318 3.82153 52.0246 3.41925 52.3377L4.03345 53.1268ZM5.22207 52.3166L5.73583 53.1745C6.25892 52.8613 6.81502 52.5835 7.44089 52.3562L7.09959 51.4163L6.75829 50.4763C5.99439 50.7537 5.32302 51.0906 4.7083 51.4587L5.22207 52.3166ZM11.1921 50.7174L11.2124 51.7172C11.8163 51.705 12.4751 51.7243 13.1977 51.7811L13.2761 50.7841L13.3545 49.7872C12.5726 49.7258 11.8477 49.7039 11.1718 49.7176L11.1921 50.7174ZM13.2761 50.7841L13.1977 51.7811C14.1547 51.8563 15.0408 51.9498 15.8871 52.0764L16.0351 51.0874L16.183 50.0984C15.278 49.9631 14.3434 49.865 13.3545 49.7872L13.2761 50.7841ZM21.3795 52.5362L21.0002 53.4615C21.772 53.7779 22.5696 54.1549 23.4166 54.607L23.8876 53.7249L24.3585 52.8427C23.4584 52.3622 22.5996 51.9557 21.7589 51.611L21.3795 52.5362ZM23.8876 53.7249L23.4166 54.607C23.8746 54.8515 24.305 55.0934 24.7133 55.3375L25.2265 54.4793L25.7398 53.621C25.2995 53.3578 24.8404 53.1 24.3585 52.8427L23.8876 53.7249ZM27.7464 56.2349L27.1118 57.0078C27.8344 57.6011 28.5163 58.2599 29.2032 59.0346L29.9514 58.3711L30.6996 57.7077C29.9481 56.8601 29.1909 56.127 28.3809 55.462L27.7464 56.2349ZM31.8578 60.7804L31.046 61.3644C31.3252 61.7525 31.611 62.1642 31.9061 62.6022L32.7355 62.0435L33.5649 61.4848C33.2598 61.032 32.9622 60.6034 32.6695 60.1965L31.8578 60.7804ZM32.7355 62.0435L31.9061 62.6022C32.1843 63.0151 32.4574 63.4598 32.7236 63.932L33.5947 63.4408L34.4658 62.9497C34.1762 62.4361 33.8755 61.9459 33.5649 61.4848L32.7355 62.0435ZM35.0281 66.3926L34.106 66.7794C34.5079 67.7376 34.8753 68.7449 35.1994 69.7756L36.1533 69.4756L37.1073 69.1757C36.7656 68.0889 36.3771 67.0234 35.9503 66.0058L35.0281 66.3926ZM36.9982 72.647L36.0213 72.8607C36.1359 73.3846 36.2373 73.9069 36.3245 74.4244L37.3106 74.2582L38.2967 74.092C38.2039 73.5416 38.0963 72.9876 37.9751 72.4333L36.9982 72.647ZM37.3106 74.2582L36.3245 74.4244C36.4116 74.9408 36.4899 75.4606 36.5602 75.9822L37.5512 75.8487L38.5423 75.7152C38.4692 75.1728 38.3876 74.6312 38.2967 74.092L37.3106 74.2582ZM37.8854 79.0484L36.8883 79.1242C36.9694 80.1912 37.0206 81.2502 37.0465 82.2866L38.0462 82.2616L39.0459 82.2366C39.0192 81.1687 38.9664 80.0758 38.8825 78.9726L37.8854 79.0484ZM38.0497 85.4788L37.05 85.4562C37.0378 85.9969 37.0192 86.5255 36.9952 87.0394L37.9941 87.0861L38.993 87.1328C39.0178 86.6029 39.0369 86.0583 39.0495 85.5015L38.0497 85.4788ZM37.9941 87.0861L36.9952 87.0394C36.959 87.8139 36.9102 88.5487 36.8508 89.2459L37.8472 89.3307L38.8436 89.4155C38.9052 88.6923 38.9556 87.9321 38.993 87.1328L37.9941 87.0861ZM37.2609 93.7881L36.2775 93.6069C36.1335 94.3882 35.9774 95.0978 35.8158 95.7421L36.7857 95.9855L37.7556 96.2288C37.9277 95.543 38.0928 94.7919 38.2444 93.9694L37.2609 93.7881ZM36.7857 95.9855L35.8158 95.7421C35.704 96.1877 35.5902 96.598 35.4749 96.9806L36.4324 97.2691L37.3899 97.5577C37.5144 97.1445 37.6364 96.7042 37.7556 96.2288L36.7857 95.9855ZM35.5362 99.7747L34.611 99.395C34.4436 99.8029 34.2735 100.197 34.0979 100.604L35.016 101L35.934 101.396C36.1086 100.992 36.2859 100.582 36.4613 100.154L35.5362 99.7747Z" fill="#094020"/>
</svg>
