<svg width="20" height="20" viewBox="0 0 20 20" fill="none" xmlns="http://www.w3.org/2000/svg">
<path d="M7.05781 15.8077C6.99974 15.8657 6.95368 15.9347 6.92225 16.0105C6.89082 16.0864 6.87465 16.1677 6.87465 16.2499C6.87465 16.332 6.89082 16.4133 6.92225 16.4892C6.95368 16.565 6.99974 16.634 7.05781 16.692C7.11588 16.7501 7.18482 16.7962 7.26069 16.8276C7.33656 16.859 7.41787 16.8752 7.5 16.8752C7.58212 16.8752 7.66344 16.859 7.73931 16.8276C7.81518 16.7962 7.88412 16.7501 7.94218 16.692L14.1922 10.442C14.2503 10.384 14.2964 10.3151 14.3278 10.2392C14.3593 10.1633 14.3755 10.082 14.3755 9.99986C14.3755 9.91772 14.3593 9.8364 14.3278 9.76052C14.2964 9.68465 14.2503 9.61572 14.1922 9.55767L7.94218 3.30767C7.82491 3.1904 7.66585 3.12451 7.5 3.12451C7.33414 3.12451 7.17508 3.1904 7.05781 3.30767C6.94053 3.42495 6.87465 3.58401 6.87465 3.74986C6.87465 3.91571 6.94053 4.07477 7.05781 4.19205L12.8664 9.99986L7.05781 15.8077Z" fill="#093F20"/>
</svg>
