<svg width="60" height="85" viewBox="0 0 60 85" fill="none" xmlns="http://www.w3.org/2000/svg">
<g clip-path="url(#clip0_1_235)">
<rect width="60" height="85" rx="30" fill="#DFFCA1"/>
<path opacity="0.1" d="M-34 63C-29.8181 40.1296 3.43664 0.054858 103 22.7187" stroke="#093F20" stroke-miterlimit="1" stroke-dasharray="2 2"/>
<path opacity="0.1" d="M103 56C98.8181 33.1296 65.5634 -6.94514 -34 15.7187" stroke="#093F20" stroke-miterlimit="1" stroke-dasharray="2 2"/>
<rect x="7" y="29" width="46" height="83" rx="23" fill="white"/>
<rect x="6.5" y="28.5" width="47" height="84" rx="23.5" stroke="#093F20" stroke-opacity="0.02"/>
<path d="M24.7199 53.1144L21.2568 56L24.7199 58.8856C24.8348 58.9797 24.9299 59.0957 24.9997 59.2267C25.0695 59.3578 25.1127 59.5014 25.1268 59.6492C25.1409 59.797 25.1255 59.9462 25.0817 60.088C25.0378 60.2299 24.9663 60.3617 24.8713 60.4758C24.7762 60.5899 24.6595 60.684 24.5279 60.7528C24.3963 60.8216 24.2524 60.8636 24.1045 60.8765C23.9565 60.8894 23.8075 60.8729 23.666 60.8279C23.5245 60.7829 23.3933 60.7103 23.2799 60.6144L18.7799 56.8644C18.6532 56.7588 18.5512 56.6266 18.4813 56.4773C18.4113 56.3279 18.375 56.165 18.375 56C18.375 55.835 18.4113 55.6721 18.4813 55.5227C18.5512 55.3734 18.6532 55.2412 18.7799 55.1356L23.2799 51.3856C23.5095 51.1975 23.8041 51.1077 24.0996 51.1358C24.3951 51.1639 24.6675 51.3077 24.8574 51.5357C25.0474 51.7638 25.1395 52.0577 25.1138 52.3534C25.088 52.6491 24.9465 52.9226 24.7199 53.1144ZM41.2199 55.1356L36.7199 51.3856C36.6066 51.2897 36.4754 51.2171 36.3339 51.1721C36.1924 51.1271 36.0434 51.1106 35.8954 51.1235C35.7475 51.1364 35.6036 51.1784 35.472 51.2472C35.3404 51.316 35.2237 51.4101 35.1286 51.5242C35.0336 51.6383 34.9621 51.7701 34.9182 51.912C34.8744 52.0538 34.859 52.203 34.8731 52.3508C34.8872 52.4986 34.9304 52.6422 35.0002 52.7733C35.07 52.9043 35.1651 53.0202 35.2799 53.1144L38.7431 56L35.2799 58.8856C35.1651 58.9797 35.07 59.0957 35.0002 59.2267C34.9304 59.3578 34.8872 59.5014 34.8731 59.6492C34.859 59.797 34.8744 59.9462 34.9182 60.088C34.9621 60.2299 35.0336 60.3617 35.1286 60.4758C35.2237 60.5899 35.3404 60.684 35.472 60.7528C35.6036 60.8216 35.7475 60.8636 35.8954 60.8765C36.0434 60.8894 36.1924 60.8729 36.3339 60.8279C36.4754 60.7829 36.6066 60.7103 36.7199 60.6144L41.2199 56.8644C41.3467 56.7588 41.4487 56.6266 41.5186 56.4773C41.5886 56.3279 41.6249 56.165 41.6249 56C41.6249 55.835 41.5886 55.6721 41.5186 55.5227C41.4487 55.3734 41.3467 55.2412 41.2199 55.1356ZM33.3843 46.6925C33.2455 46.642 33.098 46.6193 32.9504 46.6258C32.8027 46.6323 32.6578 46.6679 32.5239 46.7304C32.39 46.7929 32.2698 46.8812 32.17 46.9901C32.0702 47.0991 31.9929 47.2267 31.9424 47.3656L25.9424 63.8656C25.8407 64.146 25.8545 64.4552 25.9807 64.7254C26.107 64.9956 26.3353 65.2046 26.6156 65.3066C26.7386 65.352 26.8688 65.3752 26.9999 65.375C27.2309 65.375 27.4563 65.304 27.6455 65.1715C27.8347 65.039 27.9785 64.8514 28.0574 64.6344L34.0574 48.1344C34.1079 47.9955 34.1306 47.848 34.1241 47.7004C34.1176 47.5528 34.0821 47.4079 34.0196 47.274C33.9571 47.1401 33.8688 47.0198 33.7598 46.9201C33.6508 46.8203 33.5232 46.743 33.3843 46.6925Z" fill="#093F20"/>
</g>
<rect x="0.5" y="0.5" width="59" height="84" rx="29.5" stroke="#DFFCA1"/>
<defs>
<clipPath id="clip0_1_235">
<rect width="60" height="85" rx="30" fill="white"/>
</clipPath>
</defs>
</svg>
