<svg width="11" height="11" viewBox="0 0 11 11" fill="none" xmlns="http://www.w3.org/2000/svg">
<path d="M5.0625 0C4.06123 0 3.08245 0.29691 2.24993 0.853185C1.4174 1.40946 0.768531 2.20011 0.385362 3.12516C0.00219351 4.05022 -0.0980609 5.06812 0.0972768 6.05014C0.292614 7.03217 0.774771 7.93423 1.48277 8.64223C2.19078 9.35023 3.09283 9.83239 4.07486 10.0277C5.05689 10.2231 6.07479 10.1228 6.99984 9.73964C7.92489 9.35647 8.71554 8.7076 9.27182 7.87507C9.82809 7.04255 10.125 6.06377 10.125 5.0625C10.1235 3.7203 9.58967 2.4335 8.64059 1.48442C7.69151 0.535336 6.4047 0.00148885 5.0625 0ZM5.0625 9C4.28374 9 3.52246 8.76907 2.87494 8.33641C2.22743 7.90375 1.72275 7.2888 1.42473 6.56932C1.12671 5.84983 1.04873 5.05813 1.20066 4.29433C1.35259 3.53053 1.7276 2.82894 2.27827 2.27827C2.82894 1.7276 3.53053 1.35259 4.29433 1.20066C5.05813 1.04873 5.84983 1.1267 6.56932 1.42472C7.2888 1.72274 7.90376 2.22742 8.33641 2.87494C8.76907 3.52246 9 4.28374 9 5.0625C8.99889 6.10645 8.58368 7.10732 7.8455 7.8455C7.10732 8.58368 6.10645 8.99888 5.0625 9Z" fill="#094020"/>
</svg>
