<svg width="24" height="24" viewBox="0 0 24 24" fill="none" xmlns="http://www.w3.org/2000/svg">
<path d="M19.8599 12.6386L14.2546 18.3077C14.1173 18.4466 13.9538 18.557 13.7736 18.6323C13.5933 18.7076 13.4 18.7464 13.2046 18.7464H7.06118L4.28055 21.5308C4.21087 21.6005 4.12815 21.6558 4.0371 21.6935C3.94606 21.7312 3.84847 21.7506 3.74993 21.7506C3.65138 21.7506 3.5538 21.7312 3.46276 21.6935C3.37171 21.6558 3.28899 21.6005 3.2193 21.5308C3.14962 21.4611 3.09435 21.3784 3.05663 21.2874C3.01892 21.1963 2.99951 21.0987 2.99951 21.0002C2.99951 20.9016 3.01892 20.8041 3.05663 20.713C3.09435 20.622 3.14962 20.5392 3.2193 20.4696L5.33712 18.3527L11.6906 12.0002H19.5937C19.6676 12.0003 19.7398 12.0223 19.8013 12.0633C19.8627 12.1043 19.9107 12.1626 19.9392 12.2308C19.9676 12.2991 19.9753 12.3742 19.9612 12.4467C19.9471 12.5193 19.9118 12.586 19.8599 12.6386ZM20.3156 2.86612C19.1648 1.91909 17.7027 1.43424 16.2141 1.50598C14.7255 1.57773 13.3168 2.20093 12.2624 3.25424L11.3624 4.14299C11.2915 4.21246 11.2511 4.30719 11.2499 4.40643V10.3127L16.4062 5.15643C16.548 5.02172 16.7368 4.94772 16.9324 4.95023C17.1279 4.95273 17.3148 5.03153 17.4531 5.16983C17.5914 5.30814 17.6702 5.49499 17.6727 5.69056C17.6752 5.88613 17.6012 6.07495 17.4665 6.21674L13.1915 10.5002H21.4771C21.546 10.5003 21.6135 10.4815 21.6724 10.4458C21.7313 10.4101 21.7792 10.3588 21.8109 10.2977C22.4535 9.07576 22.6557 7.66976 22.3833 6.31627C22.111 4.96278 21.3808 3.7444 20.3156 2.86612ZM5.89024 15.678L9.74993 11.8183V6.63393C9.7498 6.56002 9.72784 6.4878 9.68681 6.42634C9.64577 6.36487 9.58748 6.3169 9.51927 6.28845C9.45106 6.26001 9.37596 6.25235 9.30341 6.26645C9.23086 6.28054 9.16409 6.31576 9.11149 6.36768L5.68962 9.75018C5.54989 9.88909 5.43909 10.0543 5.36362 10.2363C5.28815 10.4183 5.24951 10.6135 5.24993 10.8105V15.4127C5.24987 15.4869 5.27183 15.5595 5.31303 15.6212C5.35424 15.6829 5.41282 15.731 5.48138 15.7594C5.54994 15.7878 5.62539 15.7952 5.69817 15.7808C5.77095 15.7663 5.8378 15.7305 5.89024 15.678Z" fill="#093F20"/>
</svg>
