<svg width="24" height="24" viewBox="0 0 24 24" fill="none" xmlns="http://www.w3.org/2000/svg">
<path d="M20.7449 3.2579C19.6198 2.13325 18.0941 1.50146 16.5032 1.50146C14.9124 1.50146 13.3866 2.13325 12.2615 3.2579L5.68962 9.75009C5.54989 9.889 5.43909 10.0542 5.36362 10.2362C5.28815 10.4182 5.24951 10.6134 5.24993 10.8104V17.6898L2.4693 20.4695C2.39962 20.5391 2.34435 20.6219 2.30663 20.7129C2.26892 20.804 2.24951 20.9015 2.24951 21.0001C2.24951 21.0986 2.26892 21.1962 2.30663 21.2873C2.34435 21.3783 2.39962 21.461 2.4693 21.5307C2.61003 21.6714 2.80091 21.7505 2.99993 21.7505C3.09847 21.7505 3.19606 21.7311 3.2871 21.6934C3.37815 21.6557 3.46087 21.6004 3.53055 21.5307L6.31118 18.7501H13.1906C13.3873 18.7504 13.5822 18.7118 13.7641 18.6365C13.9459 18.5612 14.111 18.4507 14.2499 18.3113L20.7402 11.7488C21.2985 11.1919 21.7416 10.5303 22.044 9.80204C22.3464 9.07373 22.5023 8.29295 22.5028 7.50434C22.5032 6.71574 22.3482 5.93478 22.0466 5.20614C21.7449 4.4775 21.3026 3.81547 20.7449 3.2579ZM13.319 4.31822C14.1475 3.48935 15.2667 3.01639 16.4385 2.99994C17.6103 2.98349 18.7423 3.42484 19.5938 4.23013C20.4452 5.03541 20.9489 6.14109 20.9978 7.31201C21.0466 8.48294 20.6367 9.62671 19.8552 10.5001H14.5621L17.7824 7.28072C17.9232 7.13998 18.0022 6.94911 18.0022 6.75009C18.0022 6.55107 17.9232 6.3602 17.7824 6.21946C17.6417 6.07873 17.4508 5.99967 17.2518 5.99967C17.0528 5.99967 16.8619 6.07873 16.7212 6.21946L11.2499 11.6898V6.3629L13.319 4.31822ZM6.74993 10.8142L9.74993 7.84509V13.1888L6.74993 16.1888V10.8142ZM13.1906 17.2501H7.81118L13.0612 12.0001H18.3806L13.1906 17.2501Z" fill="#093F20"/>
</svg>
