<svg width="12" height="12" viewBox="0 0 12 12" fill="none" xmlns="http://www.w3.org/2000/svg">
<path d="M10.875 6C10.875 6.96418 10.5891 7.90671 10.0534 8.7084C9.51774 9.51009 8.75637 10.1349 7.86558 10.5039C6.97479 10.8729 5.99459 10.9694 5.04894 10.7813C4.10328 10.5932 3.23464 10.1289 2.55286 9.44715C1.87108 8.76536 1.40678 7.89672 1.21867 6.95107C1.03057 6.00541 1.12711 5.02521 1.49609 4.13442C1.86507 3.24363 2.48991 2.48226 3.2916 1.94659C4.09329 1.41091 5.03582 1.125 6 1.125C7.29244 1.12661 8.53148 1.64074 9.44537 2.55464C10.3593 3.46853 10.8734 4.70756 10.875 6Z" fill="#DFFCA1"/>
</svg>
