<svg width="24" height="24" viewBox="0 0 24 24" fill="none" xmlns="http://www.w3.org/2000/svg">
<path d="M21 4.50002V15.75C20.9994 15.8568 20.976 15.9622 20.9314 16.0592C20.8868 16.1562 20.8219 16.2426 20.7413 16.3125C19.3088 17.5528 17.9391 18 16.6331 18C14.8603 18 13.2047 17.1806 11.6644 16.4203C9.17531 15.1875 7.01156 14.1197 4.5 16.1035V20.25C4.5 20.4489 4.42098 20.6397 4.28033 20.7803C4.13968 20.921 3.94891 21 3.75 21C3.55109 21 3.36032 20.921 3.21967 20.7803C3.07902 20.6397 3 20.4489 3 20.25V4.50002C3.00072 4.39317 3.02426 4.28771 3.06905 4.1907C3.11383 4.09369 3.17883 4.00737 3.25969 3.93752C6.63469 1.01439 9.66375 2.51158 12.3337 3.83252C14.9062 5.10564 17.1366 6.20627 19.7587 3.93752C19.8671 3.84357 20.0002 3.78267 20.1421 3.76203C20.2841 3.7414 20.4289 3.7619 20.5596 3.8211C20.6902 3.88031 20.8012 3.97573 20.8792 4.09606C20.9573 4.2164 20.9992 4.35659 21 4.50002Z" fill="#093F20"/>
</svg>
