<svg width="24" height="24" viewBox="0 0 24 24" fill="none" xmlns="http://www.w3.org/2000/svg">
<path d="M21.4744 5.05227C21.3673 4.4211 21.0666 3.83885 20.6139 3.38617C20.1612 2.93349 19.579 2.63279 18.9478 2.52571C15.9131 2.01102 10.1925 1.77571 5.98499 5.98508C1.77749 10.1945 2.01093 15.9132 2.52561 18.9479C2.63298 19.5797 2.93437 20.1624 3.38796 20.6152C3.84155 21.068 4.42484 21.3683 5.05686 21.4745C6.12013 21.6558 7.19668 21.748 8.2753 21.7501C11.2837 21.7501 15.03 21.0001 18.015 18.0151C22.2234 13.8076 21.9891 8.08696 21.4744 5.05227ZM15.6984 3.73977C16.704 3.74332 17.7075 3.83112 18.6984 4.00227C19.0229 4.0577 19.3222 4.2126 19.5548 4.44556C19.7874 4.67851 19.9419 4.978 19.9969 5.30258C20.1903 6.42368 20.2751 7.56082 20.25 8.69821L15.3009 3.75008C15.4322 3.74258 15.5625 3.74071 15.6984 3.74071V3.73977ZM5.30249 19.997C4.97794 19.9418 4.67857 19.7871 4.44578 19.5543C4.213 19.3215 4.05831 19.0221 4.00311 18.6976C3.80969 17.5765 3.72492 16.4393 3.74999 15.302L8.69811 20.2501C7.56072 20.2756 6.42353 20.1908 5.30249 19.997ZM16.9556 16.9557C15.8672 18.0432 13.8366 19.5554 10.6397 20.0748L3.9253 13.3604C4.44468 10.1635 5.95686 8.13289 7.04436 7.04446C8.13186 5.95602 10.1625 4.44383 13.3594 3.92446L20.0747 10.6398C19.5553 13.8366 18.0431 15.8673 16.9556 16.9557ZM15.5287 8.47133C15.6693 8.61197 15.7482 8.80266 15.7482 9.00149C15.7482 9.20031 15.6693 9.39101 15.5287 9.53164L14.1844 10.8751L14.7787 11.4695C14.8528 11.538 14.9124 11.6209 14.9537 11.713C14.995 11.8051 15.0173 11.9046 15.0192 12.0056C15.0212 12.1065 15.0027 12.2068 14.9649 12.3005C14.9272 12.3941 14.8709 12.4792 14.7995 12.5505C14.728 12.6219 14.6429 12.6781 14.5493 12.7158C14.4556 12.7535 14.3553 12.7718 14.2543 12.7698C14.1534 12.7678 14.0539 12.7454 13.9618 12.704C13.8697 12.6626 13.7869 12.603 13.7184 12.5288L13.125 11.9354L11.9353 13.1251L12.5297 13.7195C12.6038 13.788 12.6634 13.8707 12.7048 13.9628C12.7462 14.0549 12.7686 14.1544 12.7706 14.2554C12.7727 14.3563 12.7543 14.4566 12.7166 14.5503C12.6789 14.644 12.6227 14.7291 12.5514 14.8005C12.48 14.8719 12.395 14.9282 12.3013 14.966C12.2077 15.0037 12.1074 15.0222 12.0064 15.0203C11.9055 15.0183 11.806 14.996 11.7138 14.9547C11.6217 14.9134 11.5389 14.8539 11.4703 14.7798L10.875 14.1845L9.53061 15.5288C9.46166 15.6014 9.37888 15.6594 9.28715 15.6995C9.19541 15.7396 9.09658 15.7609 8.99648 15.7622C8.89638 15.7635 8.79704 15.7447 8.70431 15.707C8.61158 15.6693 8.52734 15.6134 8.45655 15.5426C8.38576 15.4718 8.32986 15.3876 8.29215 15.2948C8.25443 15.2021 8.23566 15.1028 8.23694 15.0027C8.23822 14.9026 8.25953 14.8037 8.29961 14.712C8.33969 14.6203 8.39773 14.5375 8.4703 14.4685L9.81561 13.1251L9.22124 12.5307C9.08973 12.3883 9.01845 12.2006 9.02234 12.0068C9.02623 11.813 9.10498 11.6283 9.24209 11.4913C9.3792 11.3543 9.56402 11.2757 9.75781 11.272C9.95159 11.2683 10.1393 11.3397 10.2816 11.4713L10.8759 12.0657L12.0647 10.8751L11.4703 10.2807C11.3387 10.1384 11.2672 9.95075 11.2709 9.75696C11.2747 9.56318 11.3532 9.37836 11.4902 9.24125C11.6272 9.10414 11.812 9.02538 12.0058 9.02149C12.1995 9.01761 12.3873 9.08889 12.5297 9.22039L13.125 9.81571L14.4694 8.47133C14.61 8.33107 14.8005 8.2523 14.9991 8.2523C15.1976 8.2523 15.3881 8.33107 15.5287 8.47133Z" fill="#093F20"/>
</svg>
