<svg width="24" height="24" viewBox="0 0 24 24" fill="none" xmlns="http://www.w3.org/2000/svg">
<path d="M21.4746 5.05227C21.3675 4.4211 21.0668 3.83885 20.6141 3.38617C20.1615 2.93349 19.5792 2.63279 18.948 2.52571C15.9124 2.01102 10.1927 1.77571 5.98523 5.98508C1.77773 10.1945 2.01117 15.9132 2.52586 18.9479C2.63322 19.5797 2.93462 20.1624 3.38821 20.6152C3.8418 21.068 4.42509 21.3683 5.05711 21.4745C6.12037 21.6558 7.19693 21.748 8.27555 21.7501C11.284 21.7501 15.0302 21.0001 18.0152 18.0151C22.2237 13.8076 21.9893 8.08696 21.4746 5.05227ZM5.30273 19.997C4.97819 19.9418 4.67881 19.7871 4.44603 19.5543C4.21324 19.3215 4.05855 19.0221 4.00336 18.6976C3.74604 17.2468 3.67954 15.7687 3.80555 14.3007L9.69961 20.1948C8.23163 20.3208 6.75347 20.2543 5.30273 19.997ZM15.529 9.53164L14.1846 10.8751L14.779 11.4695C14.8531 11.538 14.9126 11.6209 14.9539 11.713C14.9952 11.8051 15.0175 11.9046 15.0195 12.0056C15.0214 12.1065 15.003 12.2068 14.9652 12.3005C14.9274 12.3941 14.8711 12.4792 14.7997 12.5505C14.7283 12.6219 14.6432 12.6781 14.5495 12.7158C14.4558 12.7535 14.3555 12.7718 14.2546 12.7698C14.1536 12.7678 14.0541 12.7454 13.962 12.704C13.87 12.6626 13.7872 12.603 13.7187 12.5288L13.1252 11.9354L11.9355 13.1251L12.5299 13.7195C12.6041 13.788 12.6637 13.8707 12.7051 13.9628C12.7465 14.0549 12.7689 14.1544 12.7709 14.2554C12.7729 14.3563 12.7545 14.4566 12.7169 14.5503C12.6792 14.644 12.623 14.7291 12.5516 14.8005C12.4802 14.8719 12.3952 14.9282 12.3016 14.966C12.2079 15.0037 12.1076 15.0222 12.0067 15.0203C11.9057 15.0183 11.8062 14.996 11.7141 14.9547C11.6219 14.9134 11.5391 14.8539 11.4705 14.7798L10.8752 14.1845L9.53086 15.5288C9.46191 15.6014 9.37912 15.6594 9.28739 15.6995C9.19565 15.7396 9.09683 15.7609 8.99673 15.7622C8.89663 15.7635 8.79728 15.7447 8.70455 15.707C8.61182 15.6693 8.52758 15.6134 8.45679 15.5426C8.38601 15.4718 8.33011 15.3876 8.29239 15.2948C8.25467 15.2021 8.2359 15.1028 8.23719 15.0027C8.23847 14.9026 8.25978 14.8037 8.29985 14.712C8.33993 14.6203 8.39797 14.5375 8.47055 14.4685L9.81586 13.1251L9.22148 12.5307C9.08998 12.3883 9.0187 12.2006 9.02258 12.0068C9.02647 11.813 9.10523 11.6283 9.24234 11.4913C9.37945 11.3543 9.56427 11.2757 9.75805 11.272C9.95184 11.2683 10.1395 11.3397 10.2818 11.4713L10.8762 12.0657L12.0649 10.8751L11.4705 10.2807C11.3389 10.1384 11.2675 9.95075 11.2712 9.75696C11.2749 9.56318 11.3535 9.37836 11.4905 9.24125C11.6275 9.10414 11.8122 9.02538 12.006 9.02149C12.1998 9.01761 12.3875 9.08889 12.5299 9.22039L13.1252 9.81571L14.4696 8.47133C14.5386 8.39876 14.6213 8.34072 14.7131 8.30064C14.8048 8.26056 14.9036 8.23925 15.0037 8.23797C15.1038 8.23669 15.2032 8.25546 15.2959 8.29318C15.3886 8.33089 15.4729 8.38679 15.5437 8.45758C15.6145 8.52837 15.6704 8.61261 15.7081 8.70534C15.7458 8.79807 15.7646 8.89741 15.7633 8.99751C15.762 9.09761 15.7407 9.19644 15.7006 9.28818C15.6605 9.37991 15.6025 9.46269 15.5299 9.53164H15.529ZM20.1949 9.69946L14.3009 3.80539C14.7471 3.76414 15.2121 3.74071 15.6987 3.74071C16.7042 3.74425 17.7078 3.83206 18.6987 4.00321C19.023 4.05858 19.3222 4.21335 19.5548 4.44612C19.7874 4.67889 19.942 4.97817 19.9971 5.30258C20.2544 6.75332 20.3209 8.23147 20.1949 9.69946Z" fill="#093F20"/>
</svg>
