<svg width="20" height="20" viewBox="0 0 20 20" fill="none" xmlns="http://www.w3.org/2000/svg">
<path d="M10 1.875C11.607 1.875 13.1779 2.35152 14.514 3.24431C15.8502 4.1371 16.8916 5.40605 17.5065 6.8907C18.1215 8.37535 18.2824 10.009 17.9689 11.5851C17.6554 13.1612 16.8815 14.6089 15.7452 15.7452C14.6089 16.8815 13.1612 17.6554 11.5851 17.9689C10.009 18.2824 8.37534 18.1215 6.89069 17.5065C5.40604 16.8916 4.13709 15.8502 3.24431 14.514C2.35152 13.1779 1.875 11.607 1.875 10C1.87727 7.84581 2.73403 5.78051 4.25727 4.25727C5.78051 2.73403 7.84581 1.87727 10 1.875ZM10 15C10.1854 15 10.3667 14.945 10.5208 14.842C10.675 14.739 10.7952 14.5926 10.8661 14.4213C10.9371 14.25 10.9557 14.0615 10.9195 13.8796C10.8833 13.6977 10.794 13.5307 10.6629 13.3996C10.5318 13.2685 10.3648 13.1792 10.1829 13.143C10.001 13.1068 9.81254 13.1254 9.64123 13.1964C9.46993 13.2673 9.32351 13.3875 9.22049 13.5417C9.11748 13.6958 9.0625 13.8771 9.0625 14.0625C9.0625 14.3111 9.16127 14.5496 9.33708 14.7254C9.5129 14.9012 9.75136 15 10 15ZM9.375 11.1937V11.25C9.375 11.4158 9.44084 11.5747 9.55805 11.6919C9.67526 11.8092 9.83424 11.875 10 11.875C10.1658 11.875 10.3247 11.8092 10.4419 11.6919C10.5591 11.5747 10.625 11.4158 10.625 11.25V10.625C10.625 10.4592 10.5591 10.3003 10.4419 10.1831C10.3247 10.0658 10.1658 10 10 10C8.9664 10 8.125 9.29688 8.125 8.4375C8.125 7.57812 8.9664 6.875 10 6.875C11.0336 6.875 11.875 7.57812 11.875 8.4375V8.75C11.875 8.91576 11.9408 9.07473 12.0581 9.19194C12.1753 9.30915 12.3342 9.375 12.5 9.375C12.6658 9.375 12.8247 9.30915 12.9419 9.19194C13.0591 9.07473 13.125 8.91576 13.125 8.75V8.4375C13.125 6.88672 11.7234 5.625 10 5.625C8.27656 5.625 6.875 6.88672 6.875 8.4375C6.875 9.79531 7.95 10.932 9.375 11.1937Z" fill="#093F20"/>
</svg>
