<svg width="48" height="48" viewBox="0 0 48 48" fill="none" xmlns="http://www.w3.org/2000/svg">
<path d="M24 4.5C20.1433 4.5 16.3731 5.64366 13.1664 7.78634C9.95963 9.92903 7.46027 12.9745 5.98436 16.5377C4.50845 20.1008 4.12228 24.0216 4.8747 27.8043C5.62711 31.5869 7.4843 35.0615 10.2114 37.7886C12.9386 40.5157 16.4131 42.3729 20.1957 43.1253C23.9784 43.8777 27.8992 43.4916 31.4623 42.0156C35.0255 40.5397 38.071 38.0404 40.2137 34.8336C42.3564 31.6269 43.5 27.8567 43.5 24C43.4945 18.83 41.4383 13.8732 37.7826 10.2174C34.1268 6.56167 29.1701 4.50546 24 4.5ZM17.25 18C17.695 18 18.13 18.132 18.5 18.3792C18.8701 18.6264 19.1584 18.9778 19.3287 19.389C19.499 19.8001 19.5436 20.2525 19.4568 20.689C19.37 21.1254 19.1557 21.5263 18.841 21.841C18.5263 22.1557 18.1254 22.37 17.689 22.4568C17.2525 22.5436 16.8001 22.499 16.389 22.3287C15.9778 22.1584 15.6264 21.87 15.3792 21.5C15.132 21.13 15 20.695 15 20.25C15 19.6533 15.2371 19.081 15.659 18.659C16.081 18.2371 16.6533 18 17.25 18ZM32.7975 29.25C30.8681 32.5856 27.6619 34.5 24 34.5C20.3381 34.5 17.1319 32.5875 15.2025 29.25C15.094 29.0793 15.0211 28.8884 14.9883 28.6887C14.9554 28.4891 14.9633 28.2849 15.0115 28.0884C15.0596 27.8919 15.147 27.7072 15.2683 27.5453C15.3897 27.3835 15.5426 27.2479 15.7177 27.1466C15.8929 27.0454 16.0867 26.9806 16.2875 26.9562C16.4883 26.9318 16.692 26.9483 16.8863 27.0047C17.0806 27.0611 17.2615 27.1561 17.4181 27.2842C17.5747 27.4123 17.7037 27.5707 17.7975 27.75C19.1981 30.1706 21.3994 31.5 24 31.5C26.6006 31.5 28.8019 30.1688 30.2025 27.75C30.2963 27.5707 30.4253 27.4123 30.5819 27.2842C30.7385 27.1561 30.9194 27.0611 31.1137 27.0047C31.308 26.9483 31.5117 26.9318 31.7125 26.9562C31.9133 26.9806 32.1072 27.0454 32.2823 27.1466C32.4574 27.2479 32.6103 27.3835 32.7317 27.5453C32.8531 27.7072 32.9404 27.8919 32.9886 28.0884C33.0367 28.2849 33.0446 28.4891 33.0117 28.6887C32.9789 28.8884 32.906 29.0793 32.7975 29.25ZM30.75 22.5C30.305 22.5 29.87 22.368 29.5 22.1208C29.13 21.8736 28.8416 21.5222 28.6713 21.111C28.501 20.6999 28.4564 20.2475 28.5432 19.811C28.6301 19.3746 28.8444 18.9737 29.159 18.659C29.4737 18.3443 29.8746 18.13 30.3111 18.0432C30.7475 17.9564 31.1999 18.001 31.611 18.1713C32.0222 18.3416 32.3736 18.63 32.6208 19C32.868 19.37 33 19.805 33 20.25C33 20.8467 32.763 21.419 32.341 21.841C31.919 22.2629 31.3467 22.5 30.75 22.5Z" fill="#093F20"/>
</svg>
