<svg width="48" height="48" viewBox="0 0 48 48" fill="none" xmlns="http://www.w3.org/2000/svg">
<path d="M24 4.5C20.1433 4.5 16.3731 5.64366 13.1664 7.78634C9.95963 9.92903 7.46027 12.9745 5.98436 16.5377C4.50845 20.1008 4.12228 24.0216 4.8747 27.8043C5.62711 31.5869 7.4843 35.0615 10.2114 37.7886C12.9386 40.5157 16.4131 42.3729 20.1957 43.1253C23.9784 43.8777 27.8992 43.4916 31.4623 42.0156C35.0255 40.5397 38.071 38.0404 40.2137 34.8336C42.3564 31.6269 43.5 27.8567 43.5 24C43.4945 18.83 41.4383 13.8732 37.7826 10.2174C34.1268 6.56167 29.1701 4.50546 24 4.5ZM17.25 18C17.695 18 18.13 18.132 18.5 18.3792C18.8701 18.6264 19.1584 18.9778 19.3287 19.389C19.499 19.8001 19.5436 20.2525 19.4568 20.689C19.37 21.1254 19.1557 21.5263 18.841 21.841C18.5263 22.1557 18.1254 22.37 17.689 22.4568C17.2525 22.5436 16.8001 22.499 16.389 22.3287C15.9778 22.1584 15.6264 21.87 15.3792 21.5C15.132 21.13 15 20.695 15 20.25C15 19.6533 15.2371 19.081 15.659 18.659C16.081 18.2371 16.6533 18 17.25 18ZM32.25 34.2975C31.9058 34.4961 31.4969 34.5499 31.113 34.4473C30.7291 34.3446 30.4017 34.0938 30.2025 33.75C28.8019 31.3294 26.6006 30 24 30C21.3994 30 19.1981 31.3313 17.7975 33.75C17.7037 33.9293 17.5747 34.0877 17.4181 34.2158C17.2615 34.3439 17.0806 34.4389 16.8863 34.4953C16.692 34.5517 16.4883 34.5682 16.2875 34.5438C16.0867 34.5194 15.8929 34.4546 15.7177 34.3534C15.5426 34.2521 15.3897 34.1165 15.2683 33.9547C15.147 33.7928 15.0596 33.6081 15.0115 33.4116C14.9633 33.2151 14.9554 33.0109 14.9883 32.8113C15.0211 32.6116 15.094 32.4207 15.2025 32.25C17.1319 28.9144 20.3381 27 24 27C27.6619 27 30.8681 28.9125 32.7975 32.25C32.9961 32.5942 33.0499 33.0031 32.9473 33.387C32.8446 33.7709 32.5939 34.0983 32.25 34.2975ZM30.75 22.5C30.305 22.5 29.87 22.368 29.5 22.1208C29.13 21.8736 28.8416 21.5222 28.6713 21.111C28.501 20.6999 28.4564 20.2475 28.5432 19.811C28.6301 19.3746 28.8444 18.9737 29.159 18.659C29.4737 18.3443 29.8746 18.13 30.3111 18.0432C30.7475 17.9564 31.1999 18.001 31.611 18.1713C32.0222 18.3416 32.3736 18.63 32.6208 19C32.868 19.37 33 19.805 33 20.25C33 20.8467 32.763 21.419 32.341 21.841C31.919 22.2629 31.3467 22.5 30.75 22.5Z" fill="#3F0909"/>
</svg>
