<svg width="20" height="20" viewBox="0 0 20 20" fill="none" xmlns="http://www.w3.org/2000/svg">
<path d="M19.9998 10.6252C19.9998 10.791 19.9339 10.9499 19.8167 11.0671C19.6995 11.1843 19.5406 11.2502 19.3748 11.2502H18.1248V12.5002C18.1248 12.666 18.0589 12.8249 17.9417 12.9421C17.8245 13.0593 17.6656 13.1252 17.4998 13.1252C17.334 13.1252 17.1751 13.0593 17.0579 12.9421C16.9406 12.8249 16.8748 12.666 16.8748 12.5002V11.2502H15.6248C15.459 11.2502 15.3001 11.1843 15.1829 11.0671C15.0656 10.9499 14.9998 10.791 14.9998 10.6252C14.9998 10.4594 15.0656 10.3005 15.1829 10.1833C15.3001 10.066 15.459 10.0002 15.6248 10.0002H16.8748V8.75019C16.8748 8.58443 16.9406 8.42546 17.0579 8.30825C17.1751 8.19104 17.334 8.12519 17.4998 8.12519C17.6656 8.12519 17.8245 8.19104 17.9417 8.30825C18.0589 8.42546 18.1248 8.58443 18.1248 8.75019V10.0002H19.3748C19.5406 10.0002 19.6995 10.066 19.8167 10.1833C19.9339 10.3005 19.9998 10.4594 19.9998 10.6252ZM15.4787 15.2229C15.5854 15.3499 15.6373 15.5141 15.6229 15.6793C15.6086 15.8446 15.5292 15.9974 15.4021 16.1041C15.2751 16.2108 15.1109 16.2627 14.9457 16.2483C14.7804 16.234 14.6276 16.1546 14.5209 16.0275C12.949 14.1557 10.7881 13.1252 8.4373 13.1252C6.08652 13.1252 3.92558 14.1557 2.3537 16.0275C2.247 16.1544 2.09424 16.2338 1.92905 16.2481C1.76386 16.2623 1.59975 16.2104 1.47284 16.1037C1.34593 15.997 1.26661 15.8442 1.25233 15.6791C1.23804 15.5139 1.28996 15.3498 1.39667 15.2229C2.56386 13.8338 4.01542 12.8471 5.6287 12.3189C4.64894 11.7087 3.89458 10.796 3.47975 9.71885C3.06491 8.64171 3.01218 7.45877 3.32952 6.34899C3.64687 5.23921 4.31702 4.26298 5.2386 3.56799C6.16018 2.873 7.28304 2.49707 8.4373 2.49707C9.59156 2.49707 10.7144 2.873 11.636 3.56799C12.5576 4.26298 13.2277 5.23921 13.5451 6.34899C13.8624 7.45877 13.8097 8.64171 13.3948 9.71885C12.98 10.796 12.2257 11.7087 11.2459 12.3189C12.8592 12.8471 14.3107 13.8338 15.4787 15.2229ZM8.4373 11.8752C9.24078 11.8752 10.0262 11.6369 10.6943 11.1905C11.3624 10.7441 11.8831 10.1097 12.1906 9.36735C12.498 8.62502 12.5785 7.80819 12.4217 7.02014C12.265 6.23209 11.8781 5.50822 11.3099 4.94007C10.7418 4.37192 10.0179 3.98501 9.22985 3.82825C8.4418 3.6715 7.62497 3.75195 6.88265 4.05943C6.14032 4.36691 5.50584 4.88762 5.05945 5.55569C4.61306 6.22377 4.3748 7.00921 4.3748 7.81269C4.37604 8.88976 4.80445 9.92235 5.56605 10.6839C6.32764 11.4455 7.36024 11.874 8.4373 11.8752Z" fill="#DFFCA1"/>
</svg>
